<svg width="24" height="24" viewBox="0 0 24 24" fill="none" xmlns="http://www.w3.org/2000/svg">
<path d="M18.3857 7.99832H19.4471C20.3075 7.99832 21.0037 8.69461 21.0037 9.55497V19.4481C21.0037 20.3074 20.3075 21.0037 19.4471 21.0037H8.55456C7.6942 21.0037 6.99791 20.3074 6.99791 19.4471V18.0025" stroke="black" stroke-width="1.5" stroke-linecap="round" stroke-linejoin="round"/>
<path fill-rule="evenodd" clip-rule="evenodd" d="M3.99767 18.0025H15.3144C15.9837 18.0025 16.6079 17.6684 16.9791 17.1111L17.7134 16.0087C18.1516 15.3514 18.3857 14.5791 18.3857 13.7888V5.99751C18.3857 4.89205 17.4903 3.99667 16.3848 3.99667H6.38066C5.2752 3.99667 4.37982 4.89205 4.37982 5.99751V13.0564C4.37982 13.6777 4.23476 14.29 3.95765 14.8462L3.10329 16.5549C2.77015 17.2202 3.25436 18.0025 3.99767 18.0025Z" stroke="black" stroke-width="1.5" stroke-linecap="round" stroke-linejoin="round"/>
<path d="M13.6517 9.59198L10.8375 12.4062L9.14881 10.7184" stroke="black" stroke-width="1.5" stroke-linecap="round" stroke-linejoin="round"/>
<path d="M8.37849 2.99625V4.99708" stroke="black" stroke-width="1.5" stroke-linecap="round" stroke-linejoin="round"/>
<path d="M14.381 2.99625V4.99708" stroke="black" stroke-width="1.5" stroke-linecap="round" stroke-linejoin="round"/>
</svg>
