<svg width="24" height="24" viewBox="0 0 24 24" fill="none" xmlns="http://www.w3.org/2000/svg">
<path d="M21.0037 7.99832H2.99625" stroke="black" stroke-width="1.5" stroke-linecap="round" stroke-linejoin="round"/>
<path d="M17.5023 13.0004C19.9886 13.0004 22.0042 15.016 22.0042 17.5023C22.0042 19.9886 19.9886 22.0042 17.5023 22.0042C15.016 22.0042 13.0004 19.9886 13.0004 17.5023C13.0004 15.016 15.016 13.0004 17.5023 13.0004" stroke="black" stroke-width="1.5" stroke-linecap="round" stroke-linejoin="round"/>
<path d="M14.6741 21.0037H5.9975C4.33995 21.0037 2.99625 19.66 2.99625 18.0025V5.9975C2.99625 4.33995 4.33995 2.99625 5.9975 2.99625H18.0025C19.66 2.99625 21.0037 4.33995 21.0037 5.9975V14.6741" stroke="black" stroke-width="1.5" stroke-linecap="round" stroke-linejoin="round"/>
<path d="M17.7242 15.2909V17.6833" stroke="black" stroke-width="1.5" stroke-linecap="round" stroke-linejoin="round"/>
<path d="M15.7755 17.6833H17.7242" stroke="black" stroke-width="1.5" stroke-linecap="round" stroke-linejoin="round"/>
<path d="M6.79684 11.4998C6.79684 11.5274 6.77445 11.5498 6.74682 11.5498C6.7192 11.5498 6.6968 11.5274 6.6968 11.4998C6.6968 11.4722 6.7192 11.4498 6.74682 11.4498" stroke="black" stroke-width="1.5" stroke-linecap="round" stroke-linejoin="round"/>
<path d="M6.7468 11.4498C6.77443 11.4498 6.79683 11.4722 6.79683 11.4998" stroke="black" stroke-width="1.5" stroke-linecap="round" stroke-linejoin="round"/>
<path d="M10.2993 11.4998C10.2993 11.5274 10.2769 11.5498 10.2493 11.5498C10.2216 11.5498 10.1992 11.5274 10.1992 11.4998C10.1992 11.4722 10.2216 11.4498 10.2493 11.4498" stroke="black" stroke-width="1.5" stroke-linecap="round" stroke-linejoin="round"/>
<path d="M10.2493 11.4498C10.2769 11.4498 10.2993 11.4722 10.2993 11.4998" stroke="black" stroke-width="1.5" stroke-linecap="round" stroke-linejoin="round"/>
<path d="M6.79684 14.501C6.79684 14.5287 6.77445 14.5511 6.74682 14.5511C6.7192 14.5511 6.6968 14.5287 6.6968 14.501C6.6968 14.4734 6.7192 14.451 6.74682 14.451" stroke="black" stroke-width="1.5" stroke-linecap="round" stroke-linejoin="round"/>
<path d="M6.7468 14.451C6.77443 14.451 6.79683 14.4734 6.79683 14.501" stroke="black" stroke-width="1.5" stroke-linecap="round" stroke-linejoin="round"/>
<path d="M10.2993 14.501C10.2993 14.5287 10.2769 14.5511 10.2493 14.5511C10.2216 14.5511 10.1992 14.5287 10.1992 14.501C10.1992 14.4734 10.2216 14.451 10.2493 14.451" stroke="black" stroke-width="1.5" stroke-linecap="round" stroke-linejoin="round"/>
<path d="M10.2493 14.451C10.2769 14.451 10.2993 14.4734 10.2993 14.501" stroke="black" stroke-width="1.5" stroke-linecap="round" stroke-linejoin="round"/>
<path d="M13.7997 11.4998C13.7997 11.5274 13.7773 11.5498 13.7497 11.5498C13.7221 11.5498 13.6997 11.5274 13.6997 11.4998C13.6997 11.4722 13.7221 11.4498 13.7497 11.4498" stroke="black" stroke-width="1.5" stroke-linecap="round" stroke-linejoin="round"/>
<path d="M13.7497 11.4498C13.7774 11.4498 13.7998 11.4722 13.7998 11.4998" stroke="black" stroke-width="1.5" stroke-linecap="round" stroke-linejoin="round"/>
<path d="M6.79684 17.5023C6.79684 17.5299 6.77445 17.5523 6.74682 17.5523C6.7192 17.5523 6.6968 17.5299 6.6968 17.5023C6.6968 17.4747 6.7192 17.4523 6.74682 17.4523" stroke="black" stroke-width="1.5" stroke-linecap="round" stroke-linejoin="round"/>
<path d="M6.7468 17.4523C6.77443 17.4523 6.79683 17.4747 6.79683 17.5023" stroke="black" stroke-width="1.5" stroke-linecap="round" stroke-linejoin="round"/>
<path d="M10.2993 17.5023C10.2993 17.5299 10.2769 17.5523 10.2493 17.5523C10.2216 17.5523 10.1992 17.5299 10.1992 17.5023C10.1992 17.4747 10.2216 17.4523 10.2493 17.4523" stroke="black" stroke-width="1.5" stroke-linecap="round" stroke-linejoin="round"/>
</svg>
