<svg width="24" height="24" viewBox="0 0 24 24" fill="none" xmlns="http://www.w3.org/2000/svg">
<ellipse cx="8.99872" cy="9.99915" rx="6.0025" ry="2.50104" stroke="black" stroke-width="1.5" stroke-linecap="round" stroke-linejoin="round"/>
<path d="M15.0012 13.5006C15.0012 14.8819 12.3138 16.0017 8.99872 16.0017C5.68363 16.0017 2.99622 14.8819 2.99622 13.5006" stroke="black" stroke-width="1.5" stroke-linecap="round" stroke-linejoin="round"/>
<path d="M21.0037 9.99918C21.0037 11.3805 18.3163 12.5002 15.0012 12.5002" stroke="black" stroke-width="1.5" stroke-linecap="round" stroke-linejoin="round"/>
<path d="M15.0012 9.99918V17.5023C15.0012 18.8836 12.3138 20.0033 8.99872 20.0033C5.68363 20.0033 2.99622 18.8836 2.99622 17.5023V9.99918" stroke="black" stroke-width="1.5" stroke-linecap="round" stroke-linejoin="round"/>
<path d="M21.0037 6.49771V14.0008C21.0037 15.3821 18.3163 16.5019 15.0012 16.5019" stroke="black" stroke-width="1.5" stroke-linecap="round" stroke-linejoin="round"/>
<path d="M9.49893 7.50814C9.20194 7.2532 9.02137 6.88846 8.99872 6.49772C8.99872 5.11714 11.6898 3.99667 15.0012 3.99667C18.3126 3.99667 21.0037 5.11714 21.0037 6.49772C21.0037 7.87829 18.3126 8.99876 15.0012 8.99876C14.8311 8.99876 14.6611 8.99876 14.501 8.98875" stroke="black" stroke-width="1.5" stroke-linecap="round" stroke-linejoin="round"/>
</svg>
