<svg width="24" height="24" viewBox="0 0 24 24" fill="none" xmlns="http://www.w3.org/2000/svg">
<path fill-rule="evenodd" clip-rule="evenodd" d="M16.0017 10.1813H13.8208V7.99834C13.8208 7.44583 13.3728 6.99792 12.8203 6.99792H11.1837C10.6311 6.99792 10.1832 7.44583 10.1832 7.99834V10.1813H7.99833C7.44581 10.1813 6.99791 10.6292 6.99791 11.1817V12.8183C6.99791 13.3709 7.44581 13.8188 7.99833 13.8188H10.1812V16.0017C10.1812 16.5542 10.6291 17.0021 11.1817 17.0021H12.8203C13.3728 17.0021 13.8208 16.5542 13.8208 16.0017V13.8188H16.0017C16.5542 13.8188 17.0021 13.3709 17.0021 12.8183V11.1817C17.0021 10.6292 16.5542 10.1813 16.0017 10.1813Z" stroke="black" stroke-width="1.5" stroke-linecap="round" stroke-linejoin="round"/>
<rect x="2.99825" y="2.99625" width="18.0075" height="18.0075" rx="5" stroke="black" stroke-width="1.5" stroke-linecap="round" stroke-linejoin="round"/>
</svg>
