<svg width="20" height="20" viewBox="0 0 20 20" fill="none" xmlns="http://www.w3.org/2000/svg">
<path d="M8.09009 15.2867V15.5909C8.09009 16.6451 8.94509 17.5001 10.0001 17.5001V17.5001C11.0551 17.5001 11.9101 16.6451 11.9101 15.5901V15.2859" stroke="#111111" stroke-width="1.25" stroke-linecap="round" stroke-linejoin="round"/>
<path d="M11.5277 4.7925V4.0275C11.5277 3.18417 10.8443 2.5 10.0002 2.5V2.5C9.15599 2.5 8.47266 3.18417 8.47266 4.0275V4.7925" stroke="#111111" stroke-width="1.25" stroke-linecap="round" stroke-linejoin="round"/>
<path fill-rule="evenodd" clip-rule="evenodd" d="M5.46933 8.48994V8.48994C5.46933 6.40411 7.16016 4.71411 9.24516 4.71411H10.756C12.8418 4.71411 14.5318 6.40494 14.5318 8.48994V8.48994V10.8208C14.5318 11.2624 14.7077 11.6866 15.0202 11.9991L15.5543 12.5333C15.8668 12.8458 16.0427 13.2699 16.0427 13.7116V13.7116C16.0427 14.5816 15.3377 15.2866 14.4677 15.2866H5.5335C4.6635 15.2866 3.9585 14.5816 3.9585 13.7116V13.7116C3.9585 13.2699 4.13433 12.8458 4.44683 12.5333L4.981 11.9991C5.2935 11.6866 5.46933 11.2624 5.46933 10.8208V8.48994Z" stroke="#111111" stroke-width="1.25" stroke-linecap="round" stroke-linejoin="round"/>
</svg>
