<svg width="12" height="14" viewBox="0 0 12 14" fill="none" xmlns="http://www.w3.org/2000/svg">
<mask id="mask0_59006_11582" style="mask-type:alpha" maskUnits="userSpaceOnUse" x="-2" y="-2" width="16" height="17">
<rect x="-2" y="-1.33337" width="16" height="16" fill="#D9D9D9"/>
</mask>
<g mask="url(#mask0_59006_11582)">
<path d="M1.33333 13.3333C0.966667 13.3333 0.652778 13.2028 0.391667 12.9417C0.130556 12.6806 0 12.3667 0 12V2.66667C0 2.3 0.130556 1.98611 0.391667 1.725C0.652778 1.46389 0.966667 1.33333 1.33333 1.33333H2V0.666667C2 0.477778 2.06389 0.319444 2.19167 0.191667C2.31944 0.0638889 2.47778 0 2.66667 0C2.85556 0 3.01389 0.0638889 3.14167 0.191667C3.26944 0.319444 3.33333 0.477778 3.33333 0.666667V1.33333H8.66667V0.666667C8.66667 0.477778 8.73056 0.319444 8.85833 0.191667C8.98611 0.0638889 9.14444 0 9.33333 0C9.52222 0 9.68056 0.0638889 9.80833 0.191667C9.93611 0.319444 10 0.477778 10 0.666667V1.33333H10.6667C11.0333 1.33333 11.3472 1.46389 11.6083 1.725C11.8694 1.98611 12 2.3 12 2.66667V12C12 12.3667 11.8694 12.6806 11.6083 12.9417C11.3472 13.2028 11.0333 13.3333 10.6667 13.3333H1.33333ZM1.33333 12H10.6667V5.33333H1.33333V12ZM1.33333 4H10.6667V2.66667H1.33333V4Z" fill="#111111"/>
</g>
</svg>
