<svg width="20" height="20" viewBox="0 0 20 20" fill="none" xmlns="http://www.w3.org/2000/svg">
<path fill-rule="evenodd" clip-rule="evenodd" d="M11.6667 16.6667H15.8333C16.7542 16.6667 17.5 15.9209 17.5 15V5.00004C17.5 4.07921 16.7542 3.33337 15.8333 3.33337H4.16667C3.24583 3.33337 2.5 4.07921 2.5 5.00004V15C2.5 15.9209 3.24583 16.6667 4.16667 16.6667H8.33333L10 18.3334L11.6667 16.6667Z" stroke="#758195" stroke-width="1.5" stroke-linecap="round" stroke-linejoin="round"/>
<path d="M10.1475 9.85247C10.2291 9.93414 10.2291 10.0658 10.1475 10.1475C10.0658 10.2291 9.93415 10.2291 9.85248 10.1475C9.77081 10.0658 9.77081 9.93414 9.85248 9.85247C9.93415 9.77164 10.0658 9.77164 10.1475 9.85247" stroke="#758195" stroke-width="1.5" stroke-linecap="round" stroke-linejoin="round"/>
<path d="M13.4809 9.85247C13.5625 9.93414 13.5625 10.0658 13.4809 10.1475C13.3992 10.2291 13.2675 10.2291 13.1859 10.1475C13.1042 10.0658 13.1042 9.93414 13.1859 9.85247C13.2675 9.77164 13.3992 9.77164 13.4809 9.85247" stroke="#758195" stroke-width="1.5" stroke-linecap="round" stroke-linejoin="round"/>
<path d="M6.81417 9.85247C6.89583 9.93414 6.89583 10.0658 6.81417 10.1475C6.7325 10.2291 6.60083 10.2291 6.51917 10.1475C6.4375 10.0658 6.4375 9.93414 6.51917 9.85247C6.60083 9.77164 6.7325 9.77164 6.81417 9.85247" stroke="#758195" stroke-width="1.5" stroke-linecap="round" stroke-linejoin="round"/>
</svg>
