<svg width="32" height="32" viewBox="0 0 32 32" fill="none" xmlns="http://www.w3.org/2000/svg">
<g filter="url(#filter0_d_59006_11523)">
<g clip-path="url(#clip0_59006_11523)">
<path d="M4 6C4 3.79086 5.79086 2 8 2H24C26.2091 2 28 3.79086 28 6V22C28 24.2091 26.2091 26 24 26H8C5.79086 26 4 24.2091 4 22V6Z" fill="white"/>
<path d="M18 10L14 14L18 18" stroke="#111111" stroke-width="1.5" stroke-linecap="round" stroke-linejoin="round"/>
</g>
<path d="M8 2.5H24C25.933 2.5 27.5 4.067 27.5 6V22C27.5 23.933 25.933 25.5 24 25.5H8C6.067 25.5 4.5 23.933 4.5 22V6C4.5 4.067 6.067 2.5 8 2.5Z" stroke="#DCDFE3"/>
</g>
<defs>
<filter id="filter0_d_59006_11523" x="0" y="0" width="32" height="32" filterUnits="userSpaceOnUse" color-interpolation-filters="sRGB">
<feFlood flood-opacity="0" result="BackgroundImageFix"/>
<feColorMatrix in="SourceAlpha" type="matrix" values="0 0 0 0 0 0 0 0 0 0 0 0 0 0 0 0 0 0 127 0" result="hardAlpha"/>
<feOffset dy="2"/>
<feGaussianBlur stdDeviation="2"/>
<feComposite in2="hardAlpha" operator="out"/>
<feColorMatrix type="matrix" values="0 0 0 0 0 0 0 0 0 0 0 0 0 0 0 0 0 0 0.12 0"/>
<feBlend mode="normal" in2="BackgroundImageFix" result="effect1_dropShadow_59006_11523"/>
<feBlend mode="normal" in="SourceGraphic" in2="effect1_dropShadow_59006_11523" result="shape"/>
</filter>
<clipPath id="clip0_59006_11523">
<path d="M4 6C4 3.79086 5.79086 2 8 2H24C26.2091 2 28 3.79086 28 6V22C28 24.2091 26.2091 26 24 26H8C5.79086 26 4 24.2091 4 22V6Z" fill="white"/>
</clipPath>
</defs>
</svg>
