<svg width="20" height="20" viewBox="0 0 20 20" fill="none" xmlns="http://www.w3.org/2000/svg">
<path d="M10.0011 7.49921V6.66553" stroke="#111111" stroke-width="1.25" stroke-linecap="round" stroke-linejoin="round"/>
<path d="M10.0011 12.5013V13.335" stroke="#111111" stroke-width="1.25" stroke-linecap="round" stroke-linejoin="round"/>
<path d="M8.55472 11.9058C8.76833 12.2731 9.1598 12.5006 9.58467 12.5042H10.4984C11.0894 12.5037 11.5874 12.0629 11.6596 11.4763C11.7318 10.8897 11.3556 10.3413 10.7823 10.1975L9.21976 9.80497C8.64651 9.66118 8.27027 9.11275 8.34247 8.52617C8.41467 7.93959 8.91268 7.49877 9.50369 7.49829H10.4174C10.8415 7.50123 11.2326 7.72756 11.4464 8.09377" stroke="#111111" stroke-width="1.25" stroke-linecap="round" stroke-linejoin="round"/>
<path d="M10.0002 2.49707C14.1441 2.49707 17.5033 5.85633 17.5033 10.0002C17.5033 14.1441 14.1441 17.5033 10.0002 17.5033C5.85633 17.5033 2.49707 14.1441 2.49707 10.0002C2.49707 5.85633 5.85633 2.49707 10.0002 2.49707" stroke="#111111" stroke-width="1.25" stroke-linecap="round" stroke-linejoin="round"/>
<path d="M10.0002 2.49707C14.1441 2.49707 17.5033 5.85633 17.5033 10.0002C17.5033 14.1441 14.1441 17.5033 10.0002 17.5033C5.85633 17.5033 2.49707 14.1441 2.49707 10.0002C2.49707 5.85633 5.85633 2.49707 10.0002 2.49707" stroke="#111111" stroke-width="1.25" stroke-linecap="round" stroke-linejoin="round"/>
</svg>
