<svg width="24" height="24" viewBox="0 0 24 24" fill="none" xmlns="http://www.w3.org/2000/svg">
<g clip-path="url(#clip0_59006_12536)">
<path fill-rule="evenodd" clip-rule="evenodd" d="M5.293 15.619L15.619 5.29299C16.009 4.90299 16.642 4.90299 17.032 5.29299L18.708 6.96899C19.098 7.35899 19.098 7.99199 18.708 8.38199L8.381 18.707C8.194 18.895 7.94 19 7.675 19H5V16.325C5 16.06 5.105 15.806 5.293 15.619Z" stroke="#111111" stroke-width="1.5" stroke-linecap="round" stroke-linejoin="round"/>
<path d="M13.75 7.16003L16.84 10.25" stroke="#111111" stroke-width="1.5" stroke-linecap="round" stroke-linejoin="round"/>
</g>
<defs>
<clipPath id="clip0_59006_12536">
<path d="M0 4C0 1.79086 1.79086 0 4 0H20C22.2091 0 24 1.79086 24 4V20C24 22.2091 22.2091 24 20 24H4C1.79086 24 0 22.2091 0 20V4Z" fill="white"/>
</clipPath>
</defs>
</svg>
