<svg width="10" height="12" viewBox="0 0 10 12" fill="none" xmlns="http://www.w3.org/2000/svg">
<mask id="mask0_59006_11564" style="mask-type:alpha" maskUnits="userSpaceOnUse" x="-4" y="-3" width="17" height="17">
<rect x="-3.33337" y="-2.66663" width="16" height="16" fill="#D9D9D9"/>
</mask>
<g mask="url(#mask0_59006_11564)">
<path d="M1.33333 6.66667V10.6667C1.33333 10.8556 1.26944 11.0139 1.14167 11.1417C1.01389 11.2694 0.855556 11.3333 0.666667 11.3333C0.477778 11.3333 0.319444 11.2694 0.191667 11.1417C0.0638889 11.0139 0 10.8556 0 10.6667V0.666667C0 0.477778 0.0638889 0.319444 0.191667 0.191667C0.319444 0.0638889 0.477778 0 0.666667 0H5.45C5.60556 0 5.74444 0.05 5.86667 0.15C5.98889 0.25 6.06667 0.377778 6.1 0.533333L6.26667 1.33333H9.33333C9.52222 1.33333 9.68056 1.39722 9.80833 1.525C9.93611 1.65278 10 1.81111 10 2V7.33333C10 7.52222 9.93611 7.68056 9.80833 7.80833C9.68056 7.93611 9.52222 8 9.33333 8H5.88333C5.72778 8 5.58889 7.95 5.46667 7.85C5.34444 7.75 5.26667 7.62222 5.23333 7.46667L5.06667 6.66667H1.33333ZM6.43333 6.66667H8.66667V2.66667H5.71667C5.56111 2.66667 5.42222 2.61667 5.3 2.51667C5.17778 2.41667 5.1 2.28889 5.06667 2.13333L4.9 1.33333H1.33333V5.33333H5.61667C5.77222 5.33333 5.91111 5.38333 6.03333 5.48333C6.15556 5.58333 6.23333 5.71111 6.26667 5.86667L6.43333 6.66667Z" fill="#111111"/>
</g>
</svg>
