<svg width="11" height="11" viewBox="0 0 11 11" fill="none" xmlns="http://www.w3.org/2000/svg">
<mask id="mask0_59006_11573" style="mask-type:alpha" maskUnits="userSpaceOnUse" x="-3" y="-3" width="17" height="17">
<rect x="-2.75006" y="-2.74994" width="16.4999" height="16.4999" fill="#D9D9D9"/>
</mask>
<g mask="url(#mask0_59006_11573)">
<path d="M5.49996 5.49996C4.74371 5.49996 4.09632 5.23069 3.55779 4.69215C3.01925 4.15361 2.74998 3.50622 2.74998 2.74998C2.74998 1.99373 3.01925 1.34634 3.55779 0.807806C4.09632 0.269269 4.74371 0 5.49996 0C6.2562 0 6.90359 0.269269 7.44213 0.807806C7.98067 1.34634 8.24994 1.99373 8.24994 2.74998C8.24994 3.50622 7.98067 4.15361 7.44213 4.69215C6.90359 5.23069 6.2562 5.49996 5.49996 5.49996ZM0 9.62493V9.07493C0 8.68535 0.10026 8.32728 0.300779 8.00072C0.501298 7.67416 0.767703 7.42494 1.09999 7.25307C1.8104 6.89786 2.53227 6.63146 3.2656 6.45386C3.99893 6.27625 4.74371 6.18745 5.49996 6.18745C6.2562 6.18745 7.00099 6.27625 7.73432 6.45386C8.46764 6.63146 9.18951 6.89786 9.89992 7.25307C10.2322 7.42494 10.4986 7.67416 10.6991 8.00072C10.8997 8.32728 10.9999 8.68535 10.9999 9.07493V9.62493C10.9999 10.003 10.8653 10.3267 10.596 10.596C10.3267 10.8653 10.003 10.9999 9.62493 10.9999H1.37499C0.996867 10.9999 0.673172 10.8653 0.403903 10.596C0.134634 10.3267 0 10.003 0 9.62493ZM1.37499 9.62493H9.62493V9.07493C9.62493 8.94889 9.59342 8.83431 9.5304 8.73118C9.46738 8.62806 9.3843 8.54785 9.28118 8.49056C8.66243 8.18119 8.03796 7.94916 7.40776 7.79447C6.77755 7.63979 6.14162 7.56244 5.49996 7.56244C4.8583 7.56244 4.22236 7.63979 3.59216 7.79447C2.96196 7.94916 2.33748 8.18119 1.71874 8.49056C1.61561 8.54785 1.53254 8.62806 1.46952 8.73118C1.4065 8.83431 1.37499 8.94889 1.37499 9.07493V9.62493ZM5.49996 4.12497C5.87808 4.12497 6.20178 3.99033 6.47104 3.72107C6.74031 3.4518 6.87495 3.1281 6.87495 2.74998C6.87495 2.37186 6.74031 2.04816 6.47104 1.77889C6.20178 1.50962 5.87808 1.37499 5.49996 1.37499C5.12184 1.37499 4.79814 1.50962 4.52887 1.77889C4.2596 2.04816 4.12497 2.37186 4.12497 2.74998C4.12497 3.1281 4.2596 3.4518 4.52887 3.72107C4.79814 3.99033 5.12184 4.12497 5.49996 4.12497Z" fill="#111111"/>
</g>
</svg>
