<svg width="24" height="24" viewBox="0 0 24 24" fill="none" xmlns="http://www.w3.org/2000/svg">
<path fill-rule="evenodd" clip-rule="evenodd" d="M3.89995 15.647L5.29795 15.861C6.32995 16.019 7.06695 16.943 6.99095 17.984L6.88795 19.395C6.85795 19.806 7.08195 20.193 7.45295 20.372L8.48695 20.87C8.85795 21.049 9.30095 20.982 9.60395 20.703L10.643 19.743C11.409 19.035 12.591 19.035 13.358 19.743L14.397 20.703C14.7 20.983 15.142 21.049 15.514 20.87L16.55 20.371C16.92 20.193 17.143 19.807 17.113 19.397L17.01 17.984C16.934 16.943 17.671 16.019 18.703 15.861L20.101 15.647C20.508 15.585 20.836 15.28 20.928 14.878L21.183 13.76C21.275 13.358 21.112 12.941 20.772 12.709L19.605 11.91C18.744 11.32 18.481 10.168 19.001 9.26302L19.706 8.03702C19.911 7.68002 19.877 7.23302 19.62 6.91102L18.905 6.01402C18.648 5.69202 18.22 5.55902 17.826 5.68002L16.474 6.09402C15.475 6.40002 14.41 5.88702 14.026 4.91602L13.508 3.60302C13.356 3.21902 12.985 2.96702 12.572 2.96802L11.426 2.97102C11.013 2.97202 10.643 3.22602 10.493 3.61102L9.98795 4.90902C9.60795 5.88602 8.53795 6.40302 7.53595 6.09502L6.12795 5.66302C5.73295 5.54102 5.30295 5.67502 5.04595 5.99902L4.33595 6.89702C4.07895 7.22202 4.04795 7.67002 4.25695 8.02702L4.97795 9.25602C5.50895 10.162 5.24895 11.325 4.38295 11.918L3.22995 12.708C2.88995 12.941 2.72695 13.358 2.81895 13.759L3.07395 14.877C3.16495 15.28 3.49295 15.585 3.89995 15.647V15.647Z" stroke="#111111" stroke-width="1.5" stroke-linecap="round" stroke-linejoin="round"/>
<path d="M13.9159 10.084C14.9739 11.142 14.9739 12.858 13.9159 13.916C12.8579 14.974 11.1419 14.974 10.0839 13.916C9.02591 12.858 9.02591 11.142 10.0839 10.084C11.1419 9.02603 12.8579 9.02603 13.9159 10.084" stroke="#111111" stroke-width="1.5" stroke-linecap="round" stroke-linejoin="round"/>
</svg>
