<svg width="263" height="48" viewBox="0 0 263 48" fill="none" xmlns="http://www.w3.org/2000/svg">
<path d="M23.0702 33.715H23.0556C21.4839 33.715 20.0151 32.8719 19.2223 31.5151L19.0833 31.2771C18.2765 29.8962 18.276 28.1804 19.0823 26.7991L25.103 16.4867C25.8956 15.1288 27.3648 14.2853 28.9371 14.2853H29.2543C30.8156 14.2853 32.2796 15.1199 33.0748 16.4634L36.3262 21.9564C37.1508 23.3494 37.1519 25.0808 36.3288 26.4748C35.534 27.8211 34.069 28.6574 32.5056 28.6574H29.6977C28.9453 28.6574 28.2523 29.067 27.8896 29.7262L26.9596 31.4159C26.1793 32.8339 24.689 33.7148 23.0702 33.7148V33.715ZM28.937 16.6611C28.2062 16.6611 27.5231 17.0533 27.1545 17.6845L21.1339 27.9968C20.7591 28.639 20.7591 29.4365 21.1343 30.0785L21.2733 30.3165C21.6419 30.9473 22.3248 31.3393 23.0553 31.3393H23.0699C23.8223 31.3393 24.5153 30.9297 24.8779 30.2707L25.8079 28.5808C26.5883 27.1628 28.0788 26.2819 29.6974 26.2819H32.5053C33.232 26.2819 33.9131 25.893 34.2827 25.2671C34.6653 24.6191 34.6648 23.8142 34.2814 23.1667L31.03 17.6737C30.6603 17.0491 29.9797 16.6611 29.254 16.6611H28.9368H28.937Z" fill="url(#paint0_linear_0_208)"/>
<path d="M36.3263 21.9566L35.9884 21.3857C35.462 21.602 34.8907 21.7183 34.3021 21.7183H33.4243L34.2817 23.1666C34.6649 23.8142 34.6652 24.6189 34.2829 25.2669C33.9133 25.8928 33.2321 26.2816 32.5055 26.2816H29.6978C29.1097 26.2816 28.538 26.3979 28.0115 26.6142C27.0892 26.9929 26.3047 27.6777 25.8081 28.5805L24.8781 30.2703C24.5153 30.9296 23.8226 31.3391 23.0703 31.3391H23.0553C22.3247 31.3391 21.642 30.9471 21.2732 30.3165L21.1344 30.0782C20.7593 29.4362 20.7593 28.6386 21.134 27.9966L27.1544 17.6843C27.5227 17.0528 28.206 16.6608 28.937 16.6608H29.254C29.9798 16.6608 30.6603 17.0488 31.0301 17.6734L32.018 19.3425H34.3021C34.4546 19.3425 34.6046 19.3256 34.7498 19.2931L33.0747 16.4629C32.2792 15.1197 30.8152 14.2848 29.254 14.2848H28.937C27.3647 14.2848 25.8955 15.1285 25.1027 16.4862L19.0821 26.7985C18.2757 28.1799 18.2761 29.8959 19.0829 31.2768L19.2221 31.5148C20.0149 32.8717 21.4838 33.7146 23.0552 33.7146H23.0701C24.6886 33.7146 26.179 32.8336 26.9595 31.4157L27.8895 29.7262C28.1787 29.2006 28.6778 28.8336 29.25 28.7066C29.3952 28.6742 29.5452 28.6573 29.6977 28.6573H32.5053C34.0689 28.6573 35.5337 27.8208 36.3284 26.4746C37.1517 25.0805 37.1504 23.3493 36.326 21.9562L36.3263 21.9566Z" fill="url(#paint1_linear_0_208)"/>
<path d="M44.9169 16.7236L44.7777 16.4853C43.9849 15.1284 42.5161 14.285 40.9441 14.285H40.9297C39.3112 14.285 37.8207 15.1661 37.0403 16.584L36.1103 18.2738C35.8206 18.7993 35.322 19.1664 34.7498 19.2932L35.9883 21.3855C36.9103 21.0067 37.6946 20.3215 38.1913 19.4192L39.1213 17.7296C39.4844 17.0704 40.1773 16.6609 40.9297 16.6609H40.9441C41.6747 16.6609 42.3575 17.0529 42.7263 17.6832L42.8655 17.922C43.2406 18.564 43.2406 19.361 42.866 20.0035L36.845 30.3158C36.4767 30.9469 35.7938 31.3393 35.0629 31.3393H34.746C34.0201 31.3393 33.3393 30.9513 32.9698 30.3267L31.982 28.6576L30.5753 26.2816L29.7184 24.8336C29.3349 24.1856 29.3344 23.3809 29.7172 22.7329C30.0867 22.107 30.7675 21.7183 31.4946 21.7183H33.4244L32.0183 19.3427H31.4947C29.9312 19.3427 28.4664 20.1789 27.6712 21.5253C26.8483 22.9192 26.8495 24.6507 27.674 26.0438L28.0118 26.6143L29.2503 28.7069L30.9253 31.5366C31.7206 32.8803 33.1846 33.7147 34.7461 33.7147H35.063C36.6353 33.7147 38.1046 32.8713 38.897 31.5136L44.9175 21.2013C45.7243 19.82 45.724 18.104 44.917 16.7235L44.9169 16.7236Z" fill="url(#paint2_linear_0_208)"/>
<path fill-rule="evenodd" clip-rule="evenodd" d="M222 31V17C222 15.895 222.895 15 224 15H238C239.105 15 240 15.895 240 17V31C240 32.105 239.105 33 238 33H224C222.895 33 222 32.105 222 31Z" stroke="#111111" stroke-width="1.5" stroke-linecap="round" stroke-linejoin="round"/>
<path d="M228 15V33" stroke="#111111" stroke-width="1.5" stroke-linecap="round" stroke-linejoin="round"/>
<defs>
<linearGradient id="paint0_linear_0_208" x1="18.4779" y1="24" x2="36.9453" y2="24" gradientUnits="userSpaceOnUse">
<stop stop-color="#6CB764"/>
<stop offset="1" stop-color="#25B4B0"/>
</linearGradient>
<linearGradient id="paint1_linear_0_208" x1="18.4777" y1="24" x2="36.9453" y2="24" gradientUnits="userSpaceOnUse">
<stop stop-color="#6CB764"/>
<stop offset="1" stop-color="#25B4B0"/>
</linearGradient>
<linearGradient id="paint2_linear_0_208" x1="27.0546" y1="24" x2="45.5223" y2="24" gradientUnits="userSpaceOnUse">
<stop stop-color="#6CB764"/>
<stop offset="1" stop-color="#25B4B0"/>
</linearGradient>
</defs>
</svg>
