<svg width="48" height="700" viewBox="0 0 48 700" fill="none" xmlns="http://www.w3.org/2000/svg">
<g opacity="0.7">
<mask id="mask0_0_124" style="mask-type:alpha" maskUnits="userSpaceOnUse" x="12" y="32" width="24" height="24">
<rect x="12" y="32" width="24" height="24" fill="#D9D9D9"/>
</mask>
<g mask="url(#mask0_0_124)">
<path d="M16.0002 47.0002C15.1668 47.0002 14.4585 46.7086 13.8752 46.1252C13.2918 45.5419 13.0002 44.8336 13.0002 44.0002C13.0002 43.1669 13.2918 42.4586 13.8752 41.8752C14.4585 41.2919 15.1668 41.0002 16.0002 41.0002V39.0002C16.0002 38.4502 16.196 37.9794 16.5877 37.5877C16.9793 37.1961 17.4502 37.0002 18.0002 37.0002H21.0002C21.0002 36.1669 21.2918 35.4586 21.8752 34.8752C22.4585 34.2919 23.1668 34.0002 24.0002 34.0002C24.8335 34.0002 25.5418 34.2919 26.1252 34.8752C26.7085 35.4586 27.0002 36.1669 27.0002 37.0002H30.0002C30.5502 37.0002 31.021 37.1961 31.4127 37.5877C31.8043 37.9794 32.0002 38.4502 32.0002 39.0002V41.0002C32.8335 41.0002 33.5418 41.2919 34.1252 41.8752C34.7085 42.4586 35.0002 43.1669 35.0002 44.0002C35.0002 44.8336 34.7085 45.5419 34.1252 46.1252C33.5418 46.7086 32.8335 47.0002 32.0002 47.0002V51.0002C32.0002 51.5502 31.8043 52.0211 31.4127 52.4127C31.021 52.8044 30.5502 53.0002 30.0002 53.0002H18.0002C17.4502 53.0002 16.9793 52.8044 16.5877 52.4127C16.196 52.0211 16.0002 51.5502 16.0002 51.0002V47.0002ZM21.0002 45.0002C21.4168 45.0002 21.771 44.8544 22.0627 44.5627C22.3543 44.2711 22.5002 43.9169 22.5002 43.5002C22.5002 43.0836 22.3543 42.7294 22.0627 42.4377C21.771 42.1461 21.4168 42.0002 21.0002 42.0002C20.5835 42.0002 20.2293 42.1461 19.9377 42.4377C19.646 42.7294 19.5002 43.0836 19.5002 43.5002C19.5002 43.9169 19.646 44.2711 19.9377 44.5627C20.2293 44.8544 20.5835 45.0002 21.0002 45.0002ZM27.0002 45.0002C27.4168 45.0002 27.771 44.8544 28.0627 44.5627C28.3543 44.2711 28.5002 43.9169 28.5002 43.5002C28.5002 43.0836 28.3543 42.7294 28.0627 42.4377C27.771 42.1461 27.4168 42.0002 27.0002 42.0002C26.5835 42.0002 26.2293 42.1461 25.9377 42.4377C25.646 42.7294 25.5002 43.0836 25.5002 43.5002C25.5002 43.9169 25.646 44.2711 25.9377 44.5627C26.2293 44.8544 26.5835 45.0002 27.0002 45.0002ZM21.0002 49.0002H27.0002C27.2835 49.0002 27.521 48.9044 27.7127 48.7127C27.9043 48.5211 28.0002 48.2836 28.0002 48.0002C28.0002 47.7169 27.9043 47.4794 27.7127 47.2877C27.521 47.0961 27.2835 47.0002 27.0002 47.0002H21.0002C20.7168 47.0002 20.4793 47.0961 20.2877 47.2877C20.096 47.4794 20.0002 47.7169 20.0002 48.0002C20.0002 48.2836 20.096 48.5211 20.2877 48.7127C20.4793 48.9044 20.7168 49.0002 21.0002 49.0002ZM18.0002 51.0002H30.0002V39.0002H18.0002V51.0002Z" fill="#111111"/>
</g>
</g>
<line x1="4" y1="79.5" x2="44" y2="79.5" stroke="#DCDFE3"/>
<g opacity="0.7">
<path fill-rule="evenodd" clip-rule="evenodd" d="M31 125H17C15.895 125 15 124.105 15 123V109C15 107.895 15.895 107 17 107H31C32.105 107 33 107.895 33 109V123C33 124.105 32.105 125 31 125Z" stroke="#111111" stroke-width="1.5" stroke-linecap="round" stroke-linejoin="round"/>
<path d="M18 116H20L22 112L26 120L28.158 116H30" stroke="#111111" stroke-width="1.5" stroke-linecap="round" stroke-linejoin="round"/>
</g>
<g opacity="0.7">
<path fill-rule="evenodd" clip-rule="evenodd" d="M19.5 154H21.5C22.052 154 22.5 154.448 22.5 155V159C22.5 159.552 22.052 160 21.5 160H19.5C18.948 160 18.5 159.552 18.5 159V155C18.5 154.448 18.948 154 19.5 154Z" stroke="#111111" stroke-width="1.5" stroke-linecap="round" stroke-linejoin="round"/>
<path fill-rule="evenodd" clip-rule="evenodd" d="M19.5 163H21.5C22.052 163 22.5 163.448 22.5 164V165C22.5 165.552 22.052 166 21.5 166H19.5C18.948 166 18.5 165.552 18.5 165V164C18.5 163.448 18.948 163 19.5 163Z" stroke="#111111" stroke-width="1.5" stroke-linecap="round" stroke-linejoin="round"/>
<path fill-rule="evenodd" clip-rule="evenodd" d="M28.5 166H26.5C25.948 166 25.5 165.552 25.5 165V161C25.5 160.448 25.948 160 26.5 160H28.5C29.052 160 29.5 160.448 29.5 161V165C29.5 165.552 29.052 166 28.5 166Z" stroke="#111111" stroke-width="1.5" stroke-linecap="round" stroke-linejoin="round"/>
<path fill-rule="evenodd" clip-rule="evenodd" d="M28.5 157H26.5C25.948 157 25.5 156.552 25.5 156V155C25.5 154.448 25.948 154 26.5 154H28.5C29.052 154 29.5 154.448 29.5 155V156C29.5 156.552 29.052 157 28.5 157Z" stroke="#111111" stroke-width="1.5" stroke-linecap="round" stroke-linejoin="round"/>
<path fill-rule="evenodd" clip-rule="evenodd" d="M30 169H18C16.343 169 15 167.657 15 166V154C15 152.343 16.343 151 18 151H30C31.657 151 33 152.343 33 154V166C33 167.657 31.657 169 30 169Z" stroke="#111111" stroke-width="1.5" stroke-linecap="round" stroke-linejoin="round"/>
</g>
<g opacity="0.7">
<path d="M26.8171 196.167C28.373 197.723 28.373 200.245 26.8171 201.801C25.2613 203.357 22.7387 203.357 21.1829 201.801C19.627 200.245 19.627 197.723 21.1829 196.167C22.7387 194.611 25.2613 194.611 26.8171 196.167" stroke="#111111" stroke-width="1.5" stroke-linecap="round" stroke-linejoin="round"/>
<path d="M24 206.008C28.554 206.008 33 207.975 33 211V212C33 212.552 32.552 213 32 213H16C15.448 213 15 212.552 15 212V211C15 207.974 19.446 206.008 24 206.008" stroke="#111111" stroke-width="1.5" stroke-linecap="round" stroke-linejoin="round"/>
</g>
<g filter="url(#filter0_d_0_124)">
<path d="M4 236C4 231.582 7.58172 228 12 228H36C40.4183 228 44 231.582 44 236V260C44 264.418 40.4183 268 36 268H12C7.58172 268 4 264.418 4 260V236Z" fill="white" shape-rendering="crispEdges"/>
<path d="M12 228.5H36C40.1421 228.5 43.5 231.858 43.5 236V260C43.5 264.142 40.1421 267.5 36 267.5H12C7.85786 267.5 4.5 264.142 4.5 260V236C4.5 231.858 7.85786 228.5 12 228.5Z" stroke="#DCDFE3" shape-rendering="crispEdges"/>
<path d="M30 251V252" stroke="#111111" stroke-width="1.5" stroke-linecap="round" stroke-linejoin="round"/>
<path d="M30 256V257" stroke="#111111" stroke-width="1.5" stroke-linecap="round" stroke-linejoin="round"/>
<path d="M27.4 252.5L28.3 253" stroke="#111111" stroke-width="1.5" stroke-linecap="round" stroke-linejoin="round"/>
<path d="M31.7 255L32.6 255.5" stroke="#111111" stroke-width="1.5" stroke-linecap="round" stroke-linejoin="round"/>
<path d="M27.4 255.5L28.3 255" stroke="#111111" stroke-width="1.5" stroke-linecap="round" stroke-linejoin="round"/>
<path d="M31.7 253L32.6 252.5" stroke="#111111" stroke-width="1.5" stroke-linecap="round" stroke-linejoin="round"/>
<path d="M31.4 252.6C32.2 253.4 32.2 254.6 31.4 255.4C30.6 256.2 29.4 256.2 28.6 255.4C27.8 254.6 27.8 253.4 28.6 252.6C29.4 251.8 30.6 251.8 31.4 252.6" stroke="#111111" stroke-width="1.5" stroke-linecap="round" stroke-linejoin="round"/>
<path d="M27 241.2C28.7 242.9 28.7 245.6 27 247.2C25.3 248.8 22.6 248.9 21 247.2C19.4 245.5 19.3 242.8 21 241.2C22.7 239.6 25.3 239.6 27 241.2" stroke="#111111" stroke-width="1.5" stroke-linecap="round" stroke-linejoin="round"/>
<path d="M16 256C16 253.5 18 251.5 20.5 251.5H23.1" stroke="#111111" stroke-width="1.5" stroke-linecap="round" stroke-linejoin="round"/>
</g>
<g opacity="0.7">
<path d="M18.375 292L16.125 294.25L13.875 292" stroke="#111111" stroke-width="1.5" stroke-linecap="round" stroke-linejoin="round"/>
<path d="M16.125 292C16.125 292.694 16.211 293.366 16.36 294.015" stroke="#111111" stroke-width="1.5" stroke-linecap="round" stroke-linejoin="round"/>
<path d="M34.125 292C34.125 287.029 30.096 283 25.125 283C20.154 283 16.125 287.029 16.125 292" stroke="#111111" stroke-width="1.5" stroke-linecap="round" stroke-linejoin="round"/>
<path d="M25.125 301C30.096 301 34.125 296.971 34.125 292" stroke="#111111" stroke-width="1.5" stroke-linecap="round" stroke-linejoin="round"/>
<path d="M17.754 297.155C19.381 299.478 22.073 301 25.125 301" stroke="#111111" stroke-width="1.5" stroke-linecap="round" stroke-linejoin="round"/>
<path d="M28.496 294.871L24.844 292.698V287.985" stroke="#111111" stroke-width="1.5" stroke-linecap="round" stroke-linejoin="round"/>
</g>
<defs>
<filter id="filter0_d_0_124" x="0" y="226" width="48" height="48" filterUnits="userSpaceOnUse" color-interpolation-filters="sRGB">
<feFlood flood-opacity="0" result="BackgroundImageFix"/>
<feColorMatrix in="SourceAlpha" type="matrix" values="0 0 0 0 0 0 0 0 0 0 0 0 0 0 0 0 0 0 127 0" result="hardAlpha"/>
<feOffset dy="2"/>
<feGaussianBlur stdDeviation="2"/>
<feComposite in2="hardAlpha" operator="out"/>
<feColorMatrix type="matrix" values="0 0 0 0 0 0 0 0 0 0 0 0 0 0 0 0 0 0 0.12 0"/>
<feBlend mode="normal" in2="BackgroundImageFix" result="effect1_dropShadow_0_124"/>
<feBlend mode="normal" in="SourceGraphic" in2="effect1_dropShadow_0_124" result="shape"/>
</filter>
</defs>
</svg>
