<svg width="16" height="16" viewBox="0 0 16 16" fill="none" xmlns="http://www.w3.org/2000/svg">
<path fill-rule="evenodd" clip-rule="evenodd" d="M10.6675 6.78726H9.2136V5.33198C9.2136 4.96364 8.915 4.66504 8.54666 4.66504H7.45553C7.08719 4.66504 6.78859 4.96364 6.78859 5.33198V6.78726H5.33198C4.96364 6.78726 4.66504 7.08586 4.66504 7.4542V8.54532C4.66504 8.91367 4.96364 9.21227 5.33198 9.21227H6.78726V10.6675C6.78726 11.0359 7.08586 11.3345 7.4542 11.3345H8.54666C8.915 11.3345 9.2136 11.0359 9.2136 10.6675V9.21227H10.6675C11.0359 9.21227 11.3345 8.91367 11.3345 8.54532V7.4542C11.3345 7.08586 11.0359 6.78726 10.6675 6.78726Z" stroke="#758195" stroke-linecap="round" stroke-linejoin="round"/>
<rect x="1.99854" y="1.99756" width="12.005" height="12.005" rx="3.33333" stroke="#758195" stroke-linecap="round" stroke-linejoin="round"/>
</svg>
