<svg width="24" height="24" viewBox="0 0 24 24" fill="none" xmlns="http://www.w3.org/2000/svg">
<g clip-path="url(#clip0_59006_12363)">
<path fill-rule="evenodd" clip-rule="evenodd" d="M16.1381 21H7.85806C6.81106 21 5.94106 20.192 5.86306 19.147L4.96606 7H19.0001L18.1331 19.142C18.0581 20.189 17.1871 21 16.1381 21V21Z" stroke="#E34935" stroke-width="1.5" stroke-linecap="round" stroke-linejoin="round"/>
<path d="M12 11V17" stroke="#E34935" stroke-width="1.5" stroke-linecap="round" stroke-linejoin="round"/>
<path d="M4 7H20" stroke="#E34935" stroke-width="1.5" stroke-linecap="round" stroke-linejoin="round"/>
<path d="M17 7L15.987 4.298C15.694 3.517 14.948 3 14.114 3H9.886C9.052 3 8.306 3.517 8.013 4.298L7 7" stroke="#E34935" stroke-width="1.5" stroke-linecap="round" stroke-linejoin="round"/>
<path d="M15.4301 11L15.0001 17" stroke="#E34935" stroke-width="1.5" stroke-linecap="round" stroke-linejoin="round"/>
<path d="M8.56991 11L8.99991 17" stroke="#E34935" stroke-width="1.5" stroke-linecap="round" stroke-linejoin="round"/>
</g>
<defs>
<clipPath id="clip0_59006_12363">
<path d="M0 4C0 1.79086 1.79086 0 4 0H20C22.2091 0 24 1.79086 24 4V20C24 22.2091 22.2091 24 20 24H4C1.79086 24 0 22.2091 0 20V4Z" fill="white"/>
</clipPath>
</defs>
</svg>
